%TF.GenerationSoftware,KiCad,Pcbnew,5.1.9-73d0e3b20d~88~ubuntu20.04.1*%
%TF.CreationDate,2021-01-30T11:41:37+01:00*%
%TF.ProjectId,mhl21336_pa,6d686c32-3133-4333-965f-70612e6b6963,1*%
%TF.SameCoordinates,Original*%
%TF.FileFunction,Soldermask,Top*%
%TF.FilePolarity,Negative*%
%FSLAX46Y46*%
G04 Gerber Fmt 4.6, Leading zero omitted, Abs format (unit mm)*
G04 Created by KiCad (PCBNEW 5.1.9-73d0e3b20d~88~ubuntu20.04.1) date 2021-01-30 11:41:37*
%MOMM*%
%LPD*%
G01*
G04 APERTURE LIST*
%ADD10C,0.100000*%
%ADD11O,1.700000X2.000000*%
%ADD12R,3.600000X1.270000*%
%ADD13R,4.200000X1.350000*%
%ADD14C,5.600000*%
G04 APERTURE END LIST*
D10*
G36*
X153500000Y-70000000D02*
G01*
X148250000Y-70000000D01*
X148250000Y-61500000D01*
X153500000Y-61500000D01*
X153500000Y-70000000D01*
G37*
X153500000Y-70000000D02*
X148250000Y-70000000D01*
X148250000Y-61500000D01*
X153500000Y-61500000D01*
X153500000Y-70000000D01*
G36*
X108750000Y-70000000D02*
G01*
X103500000Y-70000000D01*
X103500000Y-61500000D01*
X108750000Y-61500000D01*
X108750000Y-70000000D01*
G37*
X108750000Y-70000000D02*
X103500000Y-70000000D01*
X103500000Y-61500000D01*
X108750000Y-61500000D01*
X108750000Y-70000000D01*
%TO.C,R4*%
G36*
G01*
X125850000Y-60049999D02*
X125850000Y-60950001D01*
G75*
G02*
X125600001Y-61200000I-249999J0D01*
G01*
X124899999Y-61200000D01*
G75*
G02*
X124650000Y-60950001I0J249999D01*
G01*
X124650000Y-60049999D01*
G75*
G02*
X124899999Y-59800000I249999J0D01*
G01*
X125600001Y-59800000D01*
G75*
G02*
X125850000Y-60049999I0J-249999D01*
G01*
G37*
G36*
G01*
X127850000Y-60049999D02*
X127850000Y-60950001D01*
G75*
G02*
X127600001Y-61200000I-249999J0D01*
G01*
X126899999Y-61200000D01*
G75*
G02*
X126650000Y-60950001I0J249999D01*
G01*
X126650000Y-60049999D01*
G75*
G02*
X126899999Y-59800000I249999J0D01*
G01*
X127600001Y-59800000D01*
G75*
G02*
X127850000Y-60049999I0J-249999D01*
G01*
G37*
%TD*%
%TO.C,R3*%
G36*
G01*
X111850000Y-49049999D02*
X111850000Y-49950001D01*
G75*
G02*
X111600001Y-50200000I-249999J0D01*
G01*
X110899999Y-50200000D01*
G75*
G02*
X110650000Y-49950001I0J249999D01*
G01*
X110650000Y-49049999D01*
G75*
G02*
X110899999Y-48800000I249999J0D01*
G01*
X111600001Y-48800000D01*
G75*
G02*
X111850000Y-49049999I0J-249999D01*
G01*
G37*
G36*
G01*
X113850000Y-49049999D02*
X113850000Y-49950001D01*
G75*
G02*
X113600001Y-50200000I-249999J0D01*
G01*
X112899999Y-50200000D01*
G75*
G02*
X112650000Y-49950001I0J249999D01*
G01*
X112650000Y-49049999D01*
G75*
G02*
X112899999Y-48800000I249999J0D01*
G01*
X113600001Y-48800000D01*
G75*
G02*
X113850000Y-49049999I0J-249999D01*
G01*
G37*
%TD*%
%TO.C,R2*%
G36*
G01*
X112799999Y-52900000D02*
X113700001Y-52900000D01*
G75*
G02*
X113950000Y-53149999I0J-249999D01*
G01*
X113950000Y-53850001D01*
G75*
G02*
X113700001Y-54100000I-249999J0D01*
G01*
X112799999Y-54100000D01*
G75*
G02*
X112550000Y-53850001I0J249999D01*
G01*
X112550000Y-53149999D01*
G75*
G02*
X112799999Y-52900000I249999J0D01*
G01*
G37*
G36*
G01*
X112799999Y-50900000D02*
X113700001Y-50900000D01*
G75*
G02*
X113950000Y-51149999I0J-249999D01*
G01*
X113950000Y-51850001D01*
G75*
G02*
X113700001Y-52100000I-249999J0D01*
G01*
X112799999Y-52100000D01*
G75*
G02*
X112550000Y-51850001I0J249999D01*
G01*
X112550000Y-51149999D01*
G75*
G02*
X112799999Y-50900000I249999J0D01*
G01*
G37*
%TD*%
%TO.C,R1*%
G36*
G01*
X111850000Y-55049999D02*
X111850000Y-55950001D01*
G75*
G02*
X111600001Y-56200000I-249999J0D01*
G01*
X110899999Y-56200000D01*
G75*
G02*
X110650000Y-55950001I0J249999D01*
G01*
X110650000Y-55049999D01*
G75*
G02*
X110899999Y-54800000I249999J0D01*
G01*
X111600001Y-54800000D01*
G75*
G02*
X111850000Y-55049999I0J-249999D01*
G01*
G37*
G36*
G01*
X113850000Y-55049999D02*
X113850000Y-55950001D01*
G75*
G02*
X113600001Y-56200000I-249999J0D01*
G01*
X112899999Y-56200000D01*
G75*
G02*
X112650000Y-55950001I0J249999D01*
G01*
X112650000Y-55049999D01*
G75*
G02*
X112899999Y-54800000I249999J0D01*
G01*
X113600001Y-54800000D01*
G75*
G02*
X113850000Y-55049999I0J-249999D01*
G01*
G37*
%TD*%
%TO.C,C1*%
G36*
G01*
X112775000Y-58912500D02*
X113725000Y-58912500D01*
G75*
G02*
X113975000Y-59162500I0J-250000D01*
G01*
X113975000Y-59837500D01*
G75*
G02*
X113725000Y-60087500I-250000J0D01*
G01*
X112775000Y-60087500D01*
G75*
G02*
X112525000Y-59837500I0J250000D01*
G01*
X112525000Y-59162500D01*
G75*
G02*
X112775000Y-58912500I250000J0D01*
G01*
G37*
G36*
G01*
X112775000Y-56837500D02*
X113725000Y-56837500D01*
G75*
G02*
X113975000Y-57087500I0J-250000D01*
G01*
X113975000Y-57762500D01*
G75*
G02*
X113725000Y-58012500I-250000J0D01*
G01*
X112775000Y-58012500D01*
G75*
G02*
X112525000Y-57762500I0J250000D01*
G01*
X112525000Y-57087500D01*
G75*
G02*
X112775000Y-56837500I250000J0D01*
G01*
G37*
%TD*%
%TO.C,C8*%
G36*
G01*
X132962500Y-44737500D02*
X132962500Y-44262500D01*
G75*
G02*
X133200000Y-44025000I237500J0D01*
G01*
X133800000Y-44025000D01*
G75*
G02*
X134037500Y-44262500I0J-237500D01*
G01*
X134037500Y-44737500D01*
G75*
G02*
X133800000Y-44975000I-237500J0D01*
G01*
X133200000Y-44975000D01*
G75*
G02*
X132962500Y-44737500I0J237500D01*
G01*
G37*
G36*
G01*
X131237500Y-44737500D02*
X131237500Y-44262500D01*
G75*
G02*
X131475000Y-44025000I237500J0D01*
G01*
X132075000Y-44025000D01*
G75*
G02*
X132312500Y-44262500I0J-237500D01*
G01*
X132312500Y-44737500D01*
G75*
G02*
X132075000Y-44975000I-237500J0D01*
G01*
X131475000Y-44975000D01*
G75*
G02*
X131237500Y-44737500I0J237500D01*
G01*
G37*
%TD*%
%TO.C,C7*%
G36*
G01*
X132962500Y-46487500D02*
X132962500Y-46012500D01*
G75*
G02*
X133200000Y-45775000I237500J0D01*
G01*
X133800000Y-45775000D01*
G75*
G02*
X134037500Y-46012500I0J-237500D01*
G01*
X134037500Y-46487500D01*
G75*
G02*
X133800000Y-46725000I-237500J0D01*
G01*
X133200000Y-46725000D01*
G75*
G02*
X132962500Y-46487500I0J237500D01*
G01*
G37*
G36*
G01*
X131237500Y-46487500D02*
X131237500Y-46012500D01*
G75*
G02*
X131475000Y-45775000I237500J0D01*
G01*
X132075000Y-45775000D01*
G75*
G02*
X132312500Y-46012500I0J-237500D01*
G01*
X132312500Y-46487500D01*
G75*
G02*
X132075000Y-46725000I-237500J0D01*
G01*
X131475000Y-46725000D01*
G75*
G02*
X131237500Y-46487500I0J237500D01*
G01*
G37*
%TD*%
%TO.C,C6*%
G36*
G01*
X132962500Y-48237500D02*
X132962500Y-47762500D01*
G75*
G02*
X133200000Y-47525000I237500J0D01*
G01*
X133800000Y-47525000D01*
G75*
G02*
X134037500Y-47762500I0J-237500D01*
G01*
X134037500Y-48237500D01*
G75*
G02*
X133800000Y-48475000I-237500J0D01*
G01*
X133200000Y-48475000D01*
G75*
G02*
X132962500Y-48237500I0J237500D01*
G01*
G37*
G36*
G01*
X131237500Y-48237500D02*
X131237500Y-47762500D01*
G75*
G02*
X131475000Y-47525000I237500J0D01*
G01*
X132075000Y-47525000D01*
G75*
G02*
X132312500Y-47762500I0J-237500D01*
G01*
X132312500Y-48237500D01*
G75*
G02*
X132075000Y-48475000I-237500J0D01*
G01*
X131475000Y-48475000D01*
G75*
G02*
X131237500Y-48237500I0J237500D01*
G01*
G37*
%TD*%
%TO.C,C5*%
G36*
G01*
X124437500Y-44737500D02*
X124437500Y-44262500D01*
G75*
G02*
X124675000Y-44025000I237500J0D01*
G01*
X125275000Y-44025000D01*
G75*
G02*
X125512500Y-44262500I0J-237500D01*
G01*
X125512500Y-44737500D01*
G75*
G02*
X125275000Y-44975000I-237500J0D01*
G01*
X124675000Y-44975000D01*
G75*
G02*
X124437500Y-44737500I0J237500D01*
G01*
G37*
G36*
G01*
X122712500Y-44737500D02*
X122712500Y-44262500D01*
G75*
G02*
X122950000Y-44025000I237500J0D01*
G01*
X123550000Y-44025000D01*
G75*
G02*
X123787500Y-44262500I0J-237500D01*
G01*
X123787500Y-44737500D01*
G75*
G02*
X123550000Y-44975000I-237500J0D01*
G01*
X122950000Y-44975000D01*
G75*
G02*
X122712500Y-44737500I0J237500D01*
G01*
G37*
%TD*%
%TO.C,C4*%
G36*
G01*
X124437500Y-46487500D02*
X124437500Y-46012500D01*
G75*
G02*
X124675000Y-45775000I237500J0D01*
G01*
X125275000Y-45775000D01*
G75*
G02*
X125512500Y-46012500I0J-237500D01*
G01*
X125512500Y-46487500D01*
G75*
G02*
X125275000Y-46725000I-237500J0D01*
G01*
X124675000Y-46725000D01*
G75*
G02*
X124437500Y-46487500I0J237500D01*
G01*
G37*
G36*
G01*
X122712500Y-46487500D02*
X122712500Y-46012500D01*
G75*
G02*
X122950000Y-45775000I237500J0D01*
G01*
X123550000Y-45775000D01*
G75*
G02*
X123787500Y-46012500I0J-237500D01*
G01*
X123787500Y-46487500D01*
G75*
G02*
X123550000Y-46725000I-237500J0D01*
G01*
X122950000Y-46725000D01*
G75*
G02*
X122712500Y-46487500I0J237500D01*
G01*
G37*
%TD*%
%TO.C,C3*%
G36*
G01*
X124437500Y-48237500D02*
X124437500Y-47762500D01*
G75*
G02*
X124675000Y-47525000I237500J0D01*
G01*
X125275000Y-47525000D01*
G75*
G02*
X125512500Y-47762500I0J-237500D01*
G01*
X125512500Y-48237500D01*
G75*
G02*
X125275000Y-48475000I-237500J0D01*
G01*
X124675000Y-48475000D01*
G75*
G02*
X124437500Y-48237500I0J237500D01*
G01*
G37*
G36*
G01*
X122712500Y-48237500D02*
X122712500Y-47762500D01*
G75*
G02*
X122950000Y-47525000I237500J0D01*
G01*
X123550000Y-47525000D01*
G75*
G02*
X123787500Y-47762500I0J-237500D01*
G01*
X123787500Y-48237500D01*
G75*
G02*
X123550000Y-48475000I-237500J0D01*
G01*
X122950000Y-48475000D01*
G75*
G02*
X122712500Y-48237500I0J237500D01*
G01*
G37*
%TD*%
%TO.C,C2*%
G36*
G01*
X120475000Y-52724999D02*
X120475000Y-54775001D01*
G75*
G02*
X120225001Y-55025000I-249999J0D01*
G01*
X118474999Y-55025000D01*
G75*
G02*
X118225000Y-54775001I0J249999D01*
G01*
X118225000Y-52724999D01*
G75*
G02*
X118474999Y-52475000I249999J0D01*
G01*
X120225001Y-52475000D01*
G75*
G02*
X120475000Y-52724999I0J-249999D01*
G01*
G37*
G36*
G01*
X126875000Y-52724999D02*
X126875000Y-54775001D01*
G75*
G02*
X126625001Y-55025000I-249999J0D01*
G01*
X124874999Y-55025000D01*
G75*
G02*
X124625000Y-54775001I0J249999D01*
G01*
X124625000Y-52724999D01*
G75*
G02*
X124874999Y-52475000I249999J0D01*
G01*
X126625001Y-52475000D01*
G75*
G02*
X126875000Y-52724999I0J-249999D01*
G01*
G37*
%TD*%
%TO.C,U1*%
G36*
G01*
X142260000Y-47596250D02*
X142260000Y-43393750D01*
G75*
G02*
X142658750Y-42995000I398750J0D01*
G01*
X144611250Y-42995000D01*
G75*
G02*
X145010000Y-43393750I0J-398750D01*
G01*
X145010000Y-47596250D01*
G75*
G02*
X144611250Y-47995000I-398750J0D01*
G01*
X142658750Y-47995000D01*
G75*
G02*
X142260000Y-47596250I0J398750D01*
G01*
G37*
G36*
G01*
X134610000Y-47596250D02*
X134610000Y-43393750D01*
G75*
G02*
X135008750Y-42995000I398750J0D01*
G01*
X136961250Y-42995000D01*
G75*
G02*
X137360000Y-43393750I0J-398750D01*
G01*
X137360000Y-47596250D01*
G75*
G02*
X136961250Y-47995000I-398750J0D01*
G01*
X135008750Y-47995000D01*
G75*
G02*
X134610000Y-47596250I0J398750D01*
G01*
G37*
G36*
G01*
X119410000Y-47596250D02*
X119410000Y-43393750D01*
G75*
G02*
X119808750Y-42995000I398750J0D01*
G01*
X121761250Y-42995000D01*
G75*
G02*
X122160000Y-43393750I0J-398750D01*
G01*
X122160000Y-47596250D01*
G75*
G02*
X121761250Y-47995000I-398750J0D01*
G01*
X119808750Y-47995000D01*
G75*
G02*
X119410000Y-47596250I0J398750D01*
G01*
G37*
G36*
G01*
X111760000Y-47596250D02*
X111760000Y-43393750D01*
G75*
G02*
X112158750Y-42995000I398750J0D01*
G01*
X114111250Y-42995000D01*
G75*
G02*
X114510000Y-43393750I0J-398750D01*
G01*
X114510000Y-47596250D01*
G75*
G02*
X114111250Y-47995000I-398750J0D01*
G01*
X112158750Y-47995000D01*
G75*
G02*
X111760000Y-47596250I0J398750D01*
G01*
G37*
%TD*%
%TO.C,L3*%
G36*
G01*
X118525000Y-57012500D02*
X118525000Y-57487500D01*
G75*
G02*
X118287500Y-57725000I-237500J0D01*
G01*
X117712500Y-57725000D01*
G75*
G02*
X117475000Y-57487500I0J237500D01*
G01*
X117475000Y-57012500D01*
G75*
G02*
X117712500Y-56775000I237500J0D01*
G01*
X118287500Y-56775000D01*
G75*
G02*
X118525000Y-57012500I0J-237500D01*
G01*
G37*
G36*
G01*
X120275000Y-57012500D02*
X120275000Y-57487500D01*
G75*
G02*
X120037500Y-57725000I-237500J0D01*
G01*
X119462500Y-57725000D01*
G75*
G02*
X119225000Y-57487500I0J237500D01*
G01*
X119225000Y-57012500D01*
G75*
G02*
X119462500Y-56775000I237500J0D01*
G01*
X120037500Y-56775000D01*
G75*
G02*
X120275000Y-57012500I0J-237500D01*
G01*
G37*
%TD*%
%TO.C,L2*%
G36*
G01*
X122275000Y-57012500D02*
X122275000Y-57487500D01*
G75*
G02*
X122037500Y-57725000I-237500J0D01*
G01*
X121462500Y-57725000D01*
G75*
G02*
X121225000Y-57487500I0J237500D01*
G01*
X121225000Y-57012500D01*
G75*
G02*
X121462500Y-56775000I237500J0D01*
G01*
X122037500Y-56775000D01*
G75*
G02*
X122275000Y-57012500I0J-237500D01*
G01*
G37*
G36*
G01*
X124025000Y-57012500D02*
X124025000Y-57487500D01*
G75*
G02*
X123787500Y-57725000I-237500J0D01*
G01*
X123212500Y-57725000D01*
G75*
G02*
X122975000Y-57487500I0J237500D01*
G01*
X122975000Y-57012500D01*
G75*
G02*
X123212500Y-56775000I237500J0D01*
G01*
X123787500Y-56775000D01*
G75*
G02*
X124025000Y-57012500I0J-237500D01*
G01*
G37*
%TD*%
%TO.C,L1*%
G36*
G01*
X126025000Y-57012500D02*
X126025000Y-57487500D01*
G75*
G02*
X125787500Y-57725000I-237500J0D01*
G01*
X125212500Y-57725000D01*
G75*
G02*
X124975000Y-57487500I0J237500D01*
G01*
X124975000Y-57012500D01*
G75*
G02*
X125212500Y-56775000I237500J0D01*
G01*
X125787500Y-56775000D01*
G75*
G02*
X126025000Y-57012500I0J-237500D01*
G01*
G37*
G36*
G01*
X127775000Y-57012500D02*
X127775000Y-57487500D01*
G75*
G02*
X127537500Y-57725000I-237500J0D01*
G01*
X126962500Y-57725000D01*
G75*
G02*
X126725000Y-57487500I0J237500D01*
G01*
X126725000Y-57012500D01*
G75*
G02*
X126962500Y-56775000I237500J0D01*
G01*
X127537500Y-56775000D01*
G75*
G02*
X127775000Y-57012500I0J-237500D01*
G01*
G37*
%TD*%
D11*
%TO.C,J3*%
X134250000Y-54250000D03*
G36*
G01*
X130900000Y-55000000D02*
X130900000Y-53500000D01*
G75*
G02*
X131150000Y-53250000I250000J0D01*
G01*
X132350000Y-53250000D01*
G75*
G02*
X132600000Y-53500000I0J-250000D01*
G01*
X132600000Y-55000000D01*
G75*
G02*
X132350000Y-55250000I-250000J0D01*
G01*
X131150000Y-55250000D01*
G75*
G02*
X130900000Y-55000000I0J250000D01*
G01*
G37*
%TD*%
D12*
%TO.C,J2*%
X151500000Y-59500000D03*
D13*
X151300000Y-56675000D03*
X151300000Y-62325000D03*
%TD*%
D12*
%TO.C,J1*%
X105550000Y-59500000D03*
D13*
X105750000Y-62325000D03*
X105750000Y-56675000D03*
%TD*%
D14*
%TO.C,H4*%
X144000000Y-66000000D03*
%TD*%
%TO.C,H3*%
X113000000Y-66000000D03*
%TD*%
%TO.C,H2*%
X150000000Y-46500000D03*
%TD*%
%TO.C,H1*%
X107000000Y-46500000D03*
%TD*%
%TO.C,D1*%
G36*
G01*
X122475000Y-60950001D02*
X122475000Y-60049999D01*
G75*
G02*
X122724999Y-59800000I249999J0D01*
G01*
X123375001Y-59800000D01*
G75*
G02*
X123625000Y-60049999I0J-249999D01*
G01*
X123625000Y-60950001D01*
G75*
G02*
X123375001Y-61200000I-249999J0D01*
G01*
X122724999Y-61200000D01*
G75*
G02*
X122475000Y-60950001I0J249999D01*
G01*
G37*
G36*
G01*
X120425000Y-60950001D02*
X120425000Y-60049999D01*
G75*
G02*
X120674999Y-59800000I249999J0D01*
G01*
X121325001Y-59800000D01*
G75*
G02*
X121575000Y-60049999I0J-249999D01*
G01*
X121575000Y-60950001D01*
G75*
G02*
X121325001Y-61200000I-249999J0D01*
G01*
X120674999Y-61200000D01*
G75*
G02*
X120425000Y-60950001I0J249999D01*
G01*
G37*
%TD*%
M02*
