M48
; DRILL file {KiCad 5.1.9-73d0e3b20d~88~ubuntu20.04.1} date Sat Jan 30 11:41:45 2021
; FORMAT={-:-/ absolute / inch / decimal}
; #@! TF.CreationDate,2021-01-30T11:41:45+01:00
; #@! TF.GenerationSoftware,Kicad,Pcbnew,5.1.9-73d0e3b20d~88~ubuntu20.04.1
; #@! TF.FileFunction,Plated,1,2,PTH
FMAT,2
INCH
T1C0.0157
T2C0.0394
T3C0.1260
%
G90
G05
T1
X4.1043Y-2.185
X4.1043Y-2.5
X4.124Y-2.5394
X4.124Y-2.5984
X4.124Y-2.6575
X4.124Y-2.7165
X4.1437Y-2.185
X4.1437Y-2.5
X4.1535Y-2.5689
X4.1535Y-2.628
X4.1535Y-2.687
X4.1831Y-2.185
X4.1831Y-2.5
X4.1831Y-2.5394
X4.1831Y-2.5984
X4.1831Y-2.6575
X4.1831Y-2.7165
X4.2126Y-2.5689
X4.2126Y-2.628
X4.2126Y-2.687
X4.2224Y-2.185
X4.2224Y-2.5
X4.2421Y-2.5394
X4.2421Y-2.5984
X4.2421Y-2.6575
X4.2421Y-2.7165
X4.2618Y-2.185
X4.2618Y-2.2244
X4.2618Y-2.4606
X4.2618Y-2.5
X4.3406Y-1.9291
X4.3406Y-1.9685
X4.3406Y-2.1654
X4.3406Y-2.2047
X4.3701Y-1.8996
X4.3701Y-1.998
X4.3701Y-2.1358
X4.3701Y-2.2343
X4.6358Y-2.0768
X4.6358Y-2.1161
X4.6358Y-2.1555
X4.6752Y-2.0472
X4.6752Y-2.185
X4.7146Y-2.0472
X4.7146Y-2.185
X4.7244Y-2.3819
X4.9705Y-1.7224
X4.9705Y-1.7618
X4.9705Y-1.8012
X4.9705Y-1.8406
X4.9705Y-1.8406
X4.9705Y-1.8799
X4.9705Y-1.8799
X4.9705Y-1.9193
X4.9705Y-1.9193
X5.0098Y-1.7421
X5.0098Y-1.7815
X5.0098Y-1.8209
X5.0098Y-1.8602
X5.0098Y-1.8996
X5.0984Y-1.7421
X5.0984Y-1.7815
X5.0984Y-1.8209
X5.0984Y-1.8602
X5.0984Y-1.8996
X5.1378Y-1.7224
X5.1378Y-1.7618
X5.1378Y-1.8012
X5.1378Y-1.8406
X5.1378Y-1.8799
X5.1378Y-1.9193
X5.8563Y-2.2047
X5.8563Y-2.2441
X5.8563Y-2.4409
X5.8563Y-2.4803
X5.876Y-2.5394
X5.876Y-2.5984
X5.876Y-2.6575
X5.876Y-2.7165
X5.8858Y-2.185
X5.8858Y-2.5
X5.9055Y-2.5689
X5.9055Y-2.628
X5.9055Y-2.687
X5.9252Y-2.185
X5.9252Y-2.5
X5.935Y-2.5394
X5.935Y-2.5984
X5.935Y-2.6575
X5.935Y-2.7165
X5.9646Y-2.185
X5.9646Y-2.5
X5.9646Y-2.5689
X5.9646Y-2.628
X5.9646Y-2.687
X5.9941Y-2.5394
X5.9941Y-2.5984
X5.9941Y-2.6575
X5.9941Y-2.7165
X6.0039Y-2.185
X6.0039Y-2.5
T2
X5.187Y-2.1358
X5.2854Y-2.1358
T3
X4.2126Y-1.8307
X4.4488Y-2.5984
X5.6693Y-2.5984
X5.9055Y-1.8307
T0
M30
